<?xml version="1.0" standalone="no"?>
<!DOCTYPE svg PUBLIC "-//W3C//DTD SVG 20010904//EN"
 "http://www.w3.org/TR/2001/REC-SVG-20010904/DTD/svg10.dtd">
<svg version="1.0" xmlns="http://www.w3.org/2000/svg"
 width="700.000000pt" height="700.000000pt" viewBox="0 0 700.000000 700.000000"
 preserveAspectRatio="xMidYMid meet">
<metadata>
Created by potrace 1.14, written by Peter Selinger 2001-2017
</metadata>
<g transform="translate(0.000000,700.000000) scale(0.100000,-0.100000)"
fill="#000000" stroke="none">
<path d="M3397 6984 c-1 -1 -71 -5 -155 -8 -144 -5 -240 -12 -307 -21 -16 -2
-52 -7 -80 -10 -27 -3 -63 -8 -80 -10 -16 -3 -48 -7 -70 -11 -44 -6 -321 -61
-345 -68 -8 -2 -37 -9 -65 -16 -192 -43 -469 -143 -690 -249 -500 -240 -842
-552 -1103 -1007 -69 -120 -76 -134 -132 -260 -81 -178 -172 -440 -219 -629
-23 -92 -77 -383 -87 -465 -3 -30 -7 -57 -9 -60 -2 -3 -6 -43 -10 -90 -3 -47
-8 -92 -10 -100 -17 -69 -25 -541 -11 -675 22 -223 80 -478 161 -715 25 -74
47 -142 49 -150 6 -24 135 -346 167 -419 17 -36 45 -97 62 -136 57 -127 186
-374 269 -513 75 -127 233 -371 247 -382 4 -3 20 -23 36 -46 100 -137 287
-324 441 -440 62 -46 114 -84 117 -84 3 0 26 -13 50 -30 71 -48 273 -144 397
-190 102 -37 331 -101 407 -114 235 -40 257 -43 353 -52 41 -3 91 -8 110 -9
265 -24 888 -25 929 -1 3 2 29 6 56 10 441 52 1181 350 1671 672 49 33 93 62
99 66 48 36 205 157 224 173 140 115 329 307 439 445 114 142 97 119 163 220
256 388 439 903 493 1385 31 270 29 729 -4 855 -5 19 -11 49 -13 65 -20 128
-101 374 -201 608 -100 232 -292 605 -427 827 -193 319 -488 666 -755 890
-116 97 -345 258 -475 332 -210 122 -502 241 -750 307 -160 42 -250 60 -389
77 -25 3 -55 7 -67 9 -60 10 -478 27 -486 19z"/>
</g>
</svg>
